<?xml version="1.0" standalone="no"?>
<!DOCTYPE svg PUBLIC "-//W3C//DTD SVG 20010904//EN"
 "http://www.w3.org/TR/2001/REC-SVG-20010904/DTD/svg10.dtd">
<svg version="1.0" xmlns="http://www.w3.org/2000/svg"
 width="81.000000pt" height="67.000000pt" viewBox="0 0 81.000000 67.000000"
 preserveAspectRatio="xMidYMid meet">

<g transform="translate(0.000000,67.000000) scale(0.100000,-0.100000)"
fill="#000000" stroke="none">
<path d="M285 601 c-16 -4 -43 -15 -60 -24 -27 -15 -28 -16 -7 -17 32 0 31
-40 -2 -40 -19 0 -25 -6 -28 -29 -3 -22 -1 -28 11 -23 10 4 12 1 6 -7 -6 -10
-3 -11 14 -2 12 7 26 9 31 6 6 -3 10 -1 10 5 0 7 6 8 16 2 9 -5 25 -7 35 -5
11 3 19 0 19 -6 0 -7 -4 -9 -10 -6 -5 3 -10 -3 -10 -14 0 -29 -30 -27 -31 2
-1 20 -1 21 -7 2 -6 -17 -17 -20 -74 -22 -58 -2 -66 0 -63 15 15 74 15 84 1
73 -8 -6 -24 -35 -36 -64 -29 -67 -23 -169 15 -233 69 -117 211 -162 340 -108
65 27 160 139 113 133 -32 -4 -48 2 -49 19 0 15 -1 15 -7 1 -10 -23 -148 -28
-139 -5 3 8 2 18 -3 21 -6 4 -11 -4 -11 -17 -1 -18 -2 -19 -6 -4 -7 26 11 41
34 28 13 -8 22 -7 35 5 17 15 18 14 19 -13 0 -16 3 -22 6 -14 9 22 26 30 39
19 8 -7 14 -7 18 0 10 16 59 5 67 -15 6 -15 8 -13 9 11 2 30 2 30 10 5 8 -24
8 -24 9 -2 1 20 6 22 55 22 30 0 56 -4 58 -9 2 -5 14 -1 27 10 l24 20 -22 22
c-16 15 -25 18 -28 10 -3 -10 -42 -13 -145 -13 -118 0 -143 -3 -153 -16 -10
-15 -14 -14 -39 7 l-27 24 26 25 c19 18 28 21 34 12 5 -9 34 -12 103 -10 l96
3 -27 60 c-33 71 -70 111 -129 137 -49 22 -124 31 -167 19z m152 -134 c45 3
45 3 40 -24 l-6 -28 14 30 c15 31 19 26 9 -12 -5 -18 -14 -23 -37 -23 -29 0
-29 1 -13 19 11 12 14 21 7 26 -6 3 -11 -1 -11 -9 0 -9 -3 -17 -7 -17 -36 -6
-53 -5 -53 5 0 7 -3 7 -8 -1 -8 -12 -52 -14 -52 -2 0 3 9 14 21 25 17 16 22
16 29 4 8 -12 10 -11 11 5 0 11 3 15 5 9 3 -7 23 -10 51 -7z m-210 -142 c-6
-39 -4 -44 11 -42 9 1 23 6 30 10 7 5 12 3 12 -3 0 -6 6 -10 13 -9 30 4 43 -2
44 -22 2 -18 -3 -20 -28 -17 -16 3 -30 0 -30 -6 -1 -6 -5 3 -9 19 -7 28 -8 29
-10 5 l-2 -25 -8 25 c-8 24 -8 24 -9 3 -1 -24 -20 -33 -22 -10 0 10 -2 10 -6
0 -2 -7 -14 -13 -24 -13 -18 0 -20 5 -14 48 10 72 15 82 37 82 19 0 20 -4 15
-45z"/>
<path d="M351 444 c0 -11 3 -14 6 -6 3 7 2 16 -1 19 -3 4 -6 -2 -5 -13z"/>
<path d="M406 451 c-4 -7 -5 -15 -2 -18 9 -9 19 4 14 18 -4 11 -6 11 -12 0z"/>
<path d="M230 445 c0 -16 16 -20 24 -6 3 5 -1 11 -9 15 -9 3 -15 0 -15 -9z"/>
<path d="M471 264 c0 -11 3 -14 6 -6 3 7 2 16 -1 19 -3 4 -6 -2 -5 -13z"/>
</g>
</svg>
